<svg width="42" height="37" viewBox="0 0 42 37" fill="none" xmlns="http://www.w3.org/2000/svg">
7    <path d="M7 9.52206H35M17.5 25.8456V16.0515M24.5 25.8456V16.0515M28 32.375H14C12.067 32.375 10.5 30.9133 10.5 29.1103V11.1544C10.5 10.2529 11.2835 9.52206 12.25 9.52206H29.75C30.7165 9.52206 31.5 10.2529 31.5 11.1544V29.1103C31.5 30.9133 29.933 32.375 28 32.375ZM17.5 9.52206H24.5C25.4665 9.52206 26.25 8.79123 26.25 7.88971V6.25735C26.25 5.35583 25.4665 4.625 24.5 4.625H17.5C16.5335 4.625 15.75 5.35583 15.75 6.25735V7.88971C15.75 8.79123 16.5335 9.52206 17.5 9.52206Z" stroke="black" stroke-width="2" stroke-linecap="round" stroke-linejoin="round"/>
 </svg>