<svg width="32" height="29" viewBox="0 0 32 29" fill="none" xmlns="http://www.w3.org/2000/svg">
    <path d="M3.75 25.2917H6.24375L23.35 10.2219L20.8563 8.025L3.75 23.0948V25.2917ZM0.25 28.375V21.8229L23.35 1.51146C23.7 1.22882 24.0865 1.01042 24.5094 0.85625C24.9323 0.702083 25.3771 0.625 25.8438 0.625C26.3104 0.625 26.7625 0.702083 27.2 0.85625C27.6375 1.01042 28.0167 1.24167 28.3375 1.55L30.7438 3.70833C31.0938 3.99097 31.349 4.325 31.5094 4.71042C31.6698 5.09583 31.75 5.48125 31.75 5.86667C31.75 6.27778 31.6698 6.66962 31.5094 7.04219C31.349 7.41476 31.0938 7.75521 30.7438 8.06354L7.6875 28.375H0.25ZM22.0813 9.14271L20.8563 8.025L23.35 10.2219L22.0813 9.14271Z" fill="#1D1B20"/>
</svg>